<svg width="1743" height="724" viewBox="0 0 1743 724" fill="none" xmlns="http://www.w3.org/2000/svg">
<path fill-rule="evenodd" clip-rule="evenodd" d="M362 724C561.927 724 724 561.927 724 362C724 162.073 561.927 0 362 0C162.073 0 0 162.073 0 362C0 561.927 162.073 724 362 724ZM138.941 330.472C152.669 264.006 210.741 135.06 336 119.733V548H388V119.708C513.398 134.922 571.524 263.971 585.259 330.472H624.716C633.204 123.3 448.144 49.293 362.1 54.2299C276.056 49.2932 90.9965 123.3 99.4841 330.472H138.941ZM488.542 635.68C505.176 635.953 522.477 632.725 538.154 624.745C584.154 601.326 662.153 524.745 605.154 393.245C591.378 361.464 576.014 340.75 560.748 327.962L488.542 635.68ZM552.001 321.466C511.911 295.384 474.755 320.478 471.654 338.745L412.154 587.245C409.528 610.223 440.951 631.261 478.412 635.08L552.001 321.466ZM235.658 635.68C219.024 635.954 201.723 632.725 186.047 624.745C140.047 601.326 62.047 524.745 119.047 393.245C132.823 361.464 148.186 340.75 163.452 327.962L235.658 635.68ZM172.2 321.466C212.29 295.384 249.445 320.478 252.547 338.745L312.047 587.245C314.673 610.223 283.249 631.261 245.789 635.08L172.2 321.466Z" fill="#ACCEEC"/>
<path d="M808.273 548V268.727H851.182V548H808.273ZM830.091 222.182C821.727 222.182 814.515 219.333 808.455 213.636C802.515 207.939 799.545 201.091 799.545 193.091C799.545 185.091 802.515 178.242 808.455 172.545C814.515 166.848 821.727 164 830.091 164C838.455 164 845.606 166.848 851.545 172.545C857.606 178.242 860.636 185.091 860.636 193.091C860.636 201.091 857.606 207.939 851.545 213.636C845.606 219.333 838.455 222.182 830.091 222.182ZM929.773 548V268.727H971.227V312.364H974.864C980.682 297.455 990.076 285.879 1003.05 277.636C1016.02 269.273 1031.59 265.091 1049.77 265.091C1068.2 265.091 1083.53 269.273 1095.77 277.636C1108.14 285.879 1117.77 297.455 1124.68 312.364H1127.59C1134.74 297.939 1145.47 286.485 1159.77 278C1174.08 269.394 1191.23 265.091 1211.23 265.091C1236.2 265.091 1256.62 272.909 1272.5 288.545C1288.38 304.061 1296.32 328.242 1296.32 361.091V548H1253.41V361.091C1253.41 340.485 1247.77 325.758 1236.5 316.909C1225.23 308.061 1211.95 303.636 1196.68 303.636C1177.05 303.636 1161.83 309.576 1151.05 321.455C1140.26 333.212 1134.86 348.121 1134.86 366.182V548H1091.23V356.727C1091.23 340.848 1086.08 328.061 1075.77 318.364C1065.47 308.545 1052.2 303.636 1035.95 303.636C1024.8 303.636 1014.38 306.606 1004.68 312.545C995.106 318.485 987.348 326.727 981.409 337.273C975.591 347.697 972.682 359.758 972.682 373.455V548H929.773ZM1374.77 548V268.727H1417.68V548H1374.77ZM1396.59 222.182C1388.23 222.182 1381.02 219.333 1374.95 213.636C1369.02 207.939 1366.05 201.091 1366.05 193.091C1366.05 185.091 1369.02 178.242 1374.95 172.545C1381.02 166.848 1388.23 164 1396.59 164C1404.95 164 1412.11 166.848 1418.05 172.545C1424.11 178.242 1427.14 185.091 1427.14 193.091C1427.14 201.091 1424.11 207.939 1418.05 213.636C1412.11 219.333 1404.95 222.182 1396.59 222.182ZM1609.73 553.818C1583.55 553.818 1561 547.636 1542.09 535.273C1523.18 522.909 1508.64 505.879 1498.45 484.182C1488.27 462.485 1483.18 437.697 1483.18 409.818C1483.18 381.455 1488.39 356.424 1498.82 334.727C1509.36 312.909 1524.03 295.879 1542.82 283.636C1561.73 271.273 1583.79 265.091 1609 265.091C1628.64 265.091 1646.33 268.727 1662.09 276C1677.85 283.273 1690.76 293.455 1700.82 306.545C1710.88 319.636 1717.12 334.909 1719.55 352.364H1676.64C1673.36 339.636 1666.09 328.364 1654.82 318.545C1643.67 308.606 1628.64 303.636 1609.73 303.636C1593 303.636 1578.33 308 1565.73 316.727C1553.24 325.333 1543.48 337.515 1536.45 353.273C1529.55 368.909 1526.09 387.273 1526.09 408.364C1526.09 429.939 1529.48 448.727 1536.27 464.727C1543.18 480.727 1552.88 493.152 1565.36 502C1577.97 510.848 1592.76 515.273 1609.73 515.273C1620.88 515.273 1631 513.333 1640.09 509.455C1649.18 505.576 1656.88 500 1663.18 492.727C1669.48 485.455 1673.97 476.727 1676.64 466.545H1719.55C1717.12 483.03 1711.12 497.879 1701.55 511.091C1692.09 524.182 1679.55 534.606 1663.91 542.364C1648.39 550 1630.33 553.818 1609.73 553.818Z" fill="black"/>
</svg>
